<svg width="62" height="62" viewBox="0 0 62 62" fill="none" xmlns="http://www.w3.org/2000/svg">
<circle cx="31" cy="31" r="31" fill="#232536"/>
<path d="M44 33C44.5523 33 45 32.5523 45 32C45 31.4477 44.5523 31 44 31V33ZM17.2929 31.2929C16.9024 31.6834 16.9024 32.3166 17.2929 32.7071L23.6569 39.0711C24.0474 39.4616 24.6805 39.4616 25.0711 39.0711C25.4616 38.6805 25.4616 38.0474 25.0711 37.6569L19.4142 32L25.0711 26.3431C25.4616 25.9526 25.4616 25.3195 25.0711 24.9289C24.6805 24.5384 24.0474 24.5384 23.6569 24.9289L17.2929 31.2929ZM44 31L18 31V33H44V31Z" fill="#F4F4F4"/>
</svg>
