<svg width="48" height="48" viewBox="0 0 48 48" fill="none" xmlns="http://www.w3.org/2000/svg">
<circle cx="24" cy="24" r="24" transform="rotate(-180 24 24)" fill="white"/>
<path d="M14.1562 23C13.604 23 13.1562 23.4477 13.1562 24C13.1562 24.5523 13.604 25 14.1562 25V23ZM34.9924 24.7071C35.3829 24.3166 35.3829 23.6834 34.9924 23.2929L28.6284 16.9289C28.2379 16.5384 27.6047 16.5384 27.2142 16.9289C26.8237 17.3195 26.8237 17.9526 27.2142 18.3431L32.8711 24L27.2142 29.6569C26.8237 30.0474 26.8237 30.6805 27.2142 31.0711C27.6047 31.4616 28.2379 31.4616 28.6284 31.0711L34.9924 24.7071ZM14.1562 25H34.2853V23H14.1562V25Z" fill="#232536"/>
</svg>
