<svg width="16.000000" height="13.812988" viewBox="0 0 16 13.813" fill="none" xmlns="http://www.w3.org/2000/svg" xmlns:xlink="http://www.w3.org/1999/xlink">
	<path id="Vector" d="M5.0332 13.813C11.0703 13.813 14.373 8.49805 14.373 3.89062C14.373 3.74121 14.3691 3.58838 14.3633 3.43896C15.0059 2.94531 15.5605 2.33398 16 1.6333C15.4023 1.9165 14.7656 2.10107 14.1152 2.18115C14.8008 1.74512 15.3145 1.05957 15.5586 0.252441C14.9141 0.658203 14.2109 0.944336 13.4766 1.09863C12.9805 0.540039 12.3262 0.169922 11.6133 0.0458984C10.9004 -0.078125 10.168 0.0507812 9.53125 0.412598C8.89453 0.774902 8.38867 1.34961 8.08984 2.04834C7.79102 2.74756 7.7168 3.53125 7.87891 4.2793C6.57422 4.20947 5.29883 3.84961 4.13281 3.22217C2.96875 2.59473 1.93945 1.71436 1.11523 0.637695C0.695312 1.40527 0.568359 2.31348 0.755859 3.17822C0.945312 4.04248 1.4375 4.79834 2.13086 5.29199C1.60938 5.27441 1.09961 5.125 0.644531 4.85693L0.644531 4.8999C0.642578 5.70557 0.90625 6.48633 1.38477 7.10986C1.86523 7.7334 2.53516 8.16113 3.27734 8.31982C2.79492 8.46045 2.28711 8.48047 1.79688 8.37988C2.00586 9.07227 2.41406 9.67822 2.96289 10.1128C3.51367 10.5474 4.17578 10.7891 4.86133 10.8037C3.69922 11.7739 2.26367 12.3003 0.785156 12.2979C0.521484 12.2974 0.259766 12.2803 0 12.2466C1.50195 13.27 3.24805 13.814 5.0332 13.813Z" fill="#232536" fill-opacity="1.000000" fill-rule="nonzero"/>
</svg>
